<svg xmlns="http://www.w3.org/2000/svg" xmlns:xlink="http://www.w3.org/1999/xlink" width="45" height="45" viewBox="0 0 45 45"><defs><path id="4n0ja" d="M519.13 2100h30.188c3.94 0 7.135 3.234 7.135 7.223v30.555c0 3.989-3.195 7.222-7.135 7.222H519.13c-3.941 0-7.136-3.233-7.136-7.222v-30.555c0-3.99 3.195-7.223 7.136-7.223z"/><path id="4n0jb" d="M536.117 2112.046c.09 0 .14.003.14.003h1.962l-.01 2.26h-1.948c-1.072 0-1.047.919-1.047.919v3.583h3.792l-.53 2.257h-3.275v11.296h-2.25l-.002-11.296h-2.99l-.006-2.257h2.998v-3.513c0-3.062 2.535-3.252 3.166-3.252.631 0 0 0 0 0zm-2.594-.813c-.947.57-2.074 1.74-2.074 4.065v2.006h-1.496a1.503 1.503 0 0 0-1.501 1.512l.005 2.258c.003.83.675 1.501 1.502 1.501h1.488l.002 9.79c0 .832.672 1.506 1.502 1.506h2.25c.83 0 1.502-.674 1.502-1.507v-9.789h1.774c.666 0 1.253-.44 1.44-1.082l.53-2.257a1.51 1.51 0 0 0-.239-1.328 1.498 1.498 0 0 0-1.202-.604h-2.29v-1.487h1.492c.827 0 1.499-.67 1.502-1.5l.01-2.184a1.503 1.503 0 0 0-1.498-1.59H536.3a3.576 3.576 0 0 0-.183-.004c-.54 0-1.595.09-2.594.694z"/></defs><g><g transform="translate(-512 -2100)"><use fill="#345bb4" xlink:href="#4n0ja"/></g><g transform="translate(-512 -2100)"><use fill="#fff" xlink:href="#4n0jb"/></g></g></svg>